<?xml version="1.0" encoding="UTF-8"?>
<svg id="Layer_2" xmlns="http://www.w3.org/2000/svg" viewBox="0 0 843.6 227.56">
  <defs>
    <style>
      .cls-1 {
        fill: #fff;
      }
    </style>
  </defs>
  <g id="Layer_1-2" data-name="Layer_1">
    <g>
      <g>
        <path class="cls-1" d="M211.68,0H0v71.21h20.85c.86-11.07,3.29-20.63,7.29-28.69,4-8.05,8.95-13.44,14.85-16.14,5.9-2.7,15.13-4.06,27.67-4.06h10v154.13c0,11.19-1.87,19.09-5.63,23.71-3.75,4.61-11.9,6.92-24.44,6.92h-5.9v20.48h121.58v-20.48h-6.46c-12.42,0-20.57-2.24-24.45-6.74-3.87-4.49-5.81-12.45-5.81-23.89V22.32h10.55c15.62,0,26.99,3.35,34.13,10.06,7.13,6.7,12.67,19.65,16.6,38.83h20.84V0Z"/>
        <rect class="cls-1" x="325.49" y="32.51" width="32.51" height="65.02"/>
        <polygon class="cls-1" points="325.49 130.03 325.49 97.52 195.43 97.52 195.43 227.56 227.94 227.56 227.94 130.03 292.98 130.03 292.98 162.54 325.49 162.54 325.49 195.05 357.99 195.05 357.99 130.03 325.49 130.03"/>
        <rect class="cls-1" x="357.99" y="195.05" width="32.51" height="32.51"/>
        <rect class="cls-1" x="227.94" width="97.55" height="32.51"/>
      </g>
      <g>
        <g>
          <path class="cls-1" d="M446.44,75.95v39.19h-9.83v-39.19h-14.98v-8.43h39.8v8.43h-14.98Z"/>
          <path class="cls-1" d="M483.16,81.03v8.09c-1.2-.22-2.18-.33-2.94-.33-2.85,0-5.04.88-6.55,2.64-1.52,1.76-2.27,4.31-2.27,7.66v16.05h-9.36v-33.98h8.63v4.82h.13c1.11-1.83,2.44-3.18,3.98-4.05,1.54-.87,3.31-1.3,5.32-1.3,1.11,0,2.14.13,3.08.4Z"/>
          <path class="cls-1" d="M510.38,83.47c2.45,2.25,3.68,5.61,3.68,10.07v12.31c0,3.84.31,6.93.94,9.3h-8.43c-.31-1.29-.47-2.81-.47-4.55h-.13c-2.5,3.57-6.18,5.35-11.04,5.35-3.52,0-6.33-.97-8.43-2.91-2.1-1.94-3.14-4.4-3.14-7.39s1.01-5.24,3.04-7.02c2.03-1.78,5.41-3.05,10.13-3.81,2.85-.44,5.69-.76,8.49-.94v-1.2c0-2.05-.49-3.57-1.47-4.55-.98-.98-2.34-1.47-4.08-1.47s-3.09.46-4.05,1.37c-.96.91-1.48,2.17-1.57,3.78h-9.1c.18-3.43,1.52-6.24,4.01-8.43,2.5-2.18,6.06-3.28,10.7-3.28s8.45,1.13,10.9,3.38ZM498.21,100.29c-1.96.36-3.37.89-4.21,1.61-.85.71-1.27,1.74-1.27,3.08s.43,2.33,1.3,3.11c.87.78,2.11,1.17,3.71,1.17,1.03,0,2.02-.17,2.98-.5.96-.33,1.75-.81,2.37-1.44.76-.76,1.27-1.62,1.54-2.57.27-.96.4-2.26.4-3.91v-1.27c-2.68.18-4.95.42-6.82.74Z"/>
          <path class="cls-1" d="M549.91,83.94c2.23,2.39,3.34,5.83,3.34,10.33v20.87h-9.36v-19.93c0-2.5-.53-4.37-1.57-5.62-1.05-1.25-2.51-1.87-4.38-1.87-2.01,0-3.62.79-4.85,2.37-1.23,1.58-1.84,3.87-1.84,6.86v18.19h-9.36v-33.98h8.76v4.28h.13c1.16-1.56,2.59-2.8,4.28-3.71,1.69-.91,3.59-1.37,5.69-1.37,3.88,0,6.93,1.19,9.16,3.58Z"/>
          <path class="cls-1" d="M584.29,83.04c2.5,1.96,3.75,4.82,3.75,8.56h-8.96c0-3.3-1.78-4.95-5.35-4.95-1.47,0-2.61.28-3.41.84-.8.56-1.2,1.33-1.2,2.31,0,.8.24,1.44.74,1.91.49.47,1.21.86,2.14,1.17.94.31,2.41.74,4.41,1.27,2.85.76,5.11,1.47,6.76,2.14,1.65.67,3.07,1.74,4.25,3.21,1.18,1.47,1.77,3.5,1.77,6.09,0,3.21-1.35,5.79-4.05,7.73-2.7,1.94-6.34,2.91-10.93,2.91-4.82,0-8.56-1.01-11.24-3.04-2.68-2.03-4.01-5.05-4.01-9.06h9.5c0,1.7.51,3.01,1.54,3.95,1.03.94,2.5,1.4,4.41,1.4,1.61,0,2.83-.29,3.68-.87.85-.58,1.27-1.38,1.27-2.41,0-.94-.27-1.68-.8-2.24-.54-.56-1.28-1-2.24-1.34-.96-.33-2.55-.79-4.78-1.37-2.68-.71-4.76-1.37-6.25-1.97-1.5-.6-2.79-1.59-3.88-2.98-1.09-1.38-1.64-3.3-1.64-5.75,0-2.01.59-3.8,1.77-5.38,1.18-1.58,2.83-2.82,4.95-3.71,2.12-.89,4.56-1.34,7.32-1.34,4.5,0,8,.98,10.5,2.94Z"/>
          <path class="cls-1" d="M607.5,75.18c-.8.83-1.21,2.17-1.21,4.05v1.94h6.42v6.96h-6.42v27.02h-9.23v-27.02h-5.62v-6.96h5.62v-3.08c0-3.7.96-6.48,2.88-8.33,1.92-1.85,4.7-2.78,8.36-2.78,1.56,0,3.1.18,4.62.53v6.62c-.4-.13-.96-.2-1.67-.2-1.69,0-2.94.41-3.74,1.24Z"/>
          <path class="cls-1" d="M640.64,82.3c2.61,1.47,4.63,3.57,6.05,6.29,1.43,2.72,2.14,5.91,2.14,9.56s-.71,6.85-2.14,9.56c-1.43,2.72-3.44,4.82-6.05,6.29-2.61,1.47-5.67,2.21-9.2,2.21s-6.59-.74-9.2-2.21c-2.61-1.47-4.63-3.57-6.05-6.29-1.43-2.72-2.14-5.91-2.14-9.56s.71-6.84,2.14-9.56c1.43-2.72,3.44-4.82,6.05-6.29,2.61-1.47,5.67-2.21,9.2-2.21s6.59.74,9.2,2.21ZM625.92,90.26c-1.36,1.96-2.04,4.59-2.04,7.89s.68,5.93,2.04,7.89c1.36,1.96,3.2,2.94,5.52,2.94s4.16-.98,5.52-2.94c1.36-1.96,2.04-4.59,2.04-7.89s-.68-5.93-2.04-7.89c-1.36-1.96-3.2-2.94-5.52-2.94s-4.16.98-5.52,2.94Z"/>
          <path class="cls-1" d="M675.98,81.03v8.09c-1.2-.22-2.18-.33-2.94-.33-2.85,0-5.04.88-6.55,2.64-1.52,1.76-2.27,4.31-2.27,7.66v16.05h-9.36v-33.98h8.63v4.82h.13c1.11-1.83,2.44-3.18,3.98-4.05,1.54-.87,3.31-1.3,5.32-1.3,1.11,0,2.14.13,3.08.4Z"/>
          <path class="cls-1" d="M728.26,83.9c2.12,2.36,3.18,5.82,3.18,10.37v20.87h-9.36v-19.93c0-2.5-.47-4.37-1.41-5.62-.94-1.25-2.25-1.87-3.95-1.87-2.01,0-3.55.86-4.61,2.58-1.07,1.72-1.61,4.18-1.61,7.39v17.46h-9.37v-20.53c0-2.18-.46-3.88-1.37-5.08-.91-1.2-2.24-1.81-3.98-1.81-2.01,0-3.55.86-4.62,2.58-1.07,1.72-1.61,4.18-1.61,7.39v17.46h-9.36v-33.98h8.83v3.88h.13c1.25-1.61,2.63-2.79,4.15-3.54,1.52-.76,3.28-1.14,5.28-1.14,2.36,0,4.4.49,6.12,1.47,1.71.98,3.04,2.43,3.98,4.35,1.34-1.92,2.85-3.37,4.55-4.35,1.69-.98,3.79-1.47,6.29-1.47,3.7,0,6.61,1.18,8.73,3.54Z"/>
          <path class="cls-1" d="M763.54,83.47c2.45,2.25,3.68,5.61,3.68,10.07v12.31c0,3.84.31,6.93.94,9.3h-8.43c-.31-1.29-.47-2.81-.47-4.55h-.13c-2.5,3.57-6.18,5.35-11.04,5.35-3.52,0-6.33-.97-8.43-2.91-2.1-1.94-3.14-4.4-3.14-7.39s1.01-5.24,3.04-7.02c2.03-1.78,5.41-3.05,10.13-3.81,2.85-.44,5.69-.76,8.49-.94v-1.2c0-2.05-.49-3.57-1.47-4.55-.98-.98-2.34-1.47-4.08-1.47s-3.09.46-4.05,1.37c-.96.91-1.48,2.17-1.57,3.78h-9.1c.18-3.43,1.52-6.24,4.01-8.43,2.5-2.18,6.06-3.28,10.7-3.28s8.45,1.13,10.9,3.38ZM751.36,100.29c-1.96.36-3.37.89-4.21,1.61-.85.71-1.27,1.74-1.27,3.08s.43,2.33,1.3,3.11c.87.78,2.11,1.17,3.71,1.17,1.03,0,2.02-.17,2.98-.5.96-.33,1.75-.81,2.37-1.44.76-.76,1.27-1.62,1.54-2.57.27-.96.4-2.26.4-3.91v-1.27c-2.68.18-4.95.42-6.82.74Z"/>
          <path class="cls-1" d="M797.95,81.83c2.34,1.16,4.21,2.79,5.62,4.88,1.41,2.1,2.22,4.46,2.44,7.09h-9.77c-.18-2.01-.84-3.59-1.97-4.75-1.14-1.16-2.6-1.74-4.38-1.74-2.27,0-4.06.97-5.35,2.91-1.29,1.94-1.94,4.58-1.94,7.93s.65,5.99,1.94,7.93c1.29,1.94,3.08,2.91,5.35,2.91,1.78,0,3.24-.64,4.38-1.91,1.14-1.27,1.77-3.02,1.91-5.25h9.83c-.36,4.33-1.99,7.8-4.88,10.43-2.9,2.63-6.62,3.95-11.17,3.95-3.43,0-6.44-.75-9.03-2.24-2.59-1.49-4.58-3.6-5.99-6.32-1.4-2.72-2.11-5.89-2.11-9.5s.7-6.78,2.11-9.5c1.4-2.72,3.4-4.83,5.99-6.32,2.59-1.49,5.6-2.24,9.03-2.24,2.99,0,5.65.58,7.99,1.74Z"/>
          <path class="cls-1" d="M831.43,108.28c1.2-.87,1.92-2.02,2.14-3.44h9.57c-.45,2.1-1.4,4.01-2.84,5.75-1.45,1.74-3.32,3.11-5.62,4.11-2.3,1-4.89,1.51-7.79,1.51-3.52,0-6.55-.77-9.1-2.31-2.54-1.54-4.48-3.69-5.82-6.45-1.34-2.76-2.01-5.95-2.01-9.56,0-3.39.67-6.42,2.01-9.1,1.34-2.68,3.28-4.79,5.82-6.35,2.54-1.56,5.55-2.34,9.03-2.34,3.88,0,7.2,1.01,9.97,3.04,2.76,2.03,4.68,4.78,5.75,8.26.71,2.27,1.07,5.17,1.07,8.7h-24.41c.13,3.3.9,5.71,2.31,7.22,1.4,1.52,3.2,2.27,5.38,2.27,1.83,0,3.34-.43,4.55-1.3ZM821.89,88.59c-1.31,1.25-2.15,3.12-2.51,5.62h14.85c-.27-2.45-1.08-4.31-2.44-5.59-1.36-1.27-3.02-1.91-4.98-1.91s-3.6.62-4.92,1.87Z"/>
        </g>
        <g>
          <path class="cls-1" d="M449.75,146.47v8.09c-1.2-.22-2.18-.33-2.94-.33-2.85,0-5.04.88-6.55,2.64-1.52,1.76-2.27,4.31-2.27,7.66v16.05h-9.36v-33.98h8.63v4.82h.13c1.11-1.83,2.44-3.18,3.98-4.05,1.54-.87,3.31-1.3,5.32-1.3,1.11,0,2.14.13,3.08.4Z"/>
          <path class="cls-1" d="M472.42,173.72c1.2-.87,1.92-2.02,2.14-3.44h9.57c-.45,2.1-1.4,4.01-2.84,5.75-1.45,1.74-3.32,3.11-5.62,4.11-2.3,1-4.89,1.51-7.79,1.51-3.52,0-6.55-.77-9.1-2.31-2.54-1.54-4.48-3.69-5.82-6.45-1.34-2.76-2.01-5.95-2.01-9.56,0-3.39.67-6.42,2.01-9.1,1.34-2.68,3.28-4.79,5.82-6.35,2.54-1.56,5.55-2.34,9.03-2.34,3.88,0,7.2,1.01,9.97,3.04,2.76,2.03,4.68,4.78,5.75,8.26.71,2.27,1.07,5.17,1.07,8.7h-24.41c.13,3.3.9,5.71,2.31,7.22,1.4,1.52,3.2,2.27,5.38,2.27,1.83,0,3.34-.43,4.55-1.3ZM462.89,154.03c-1.31,1.25-2.15,3.12-2.51,5.62h14.85c-.27-2.45-1.08-4.31-2.44-5.59-1.36-1.27-3.02-1.91-4.98-1.91s-3.6.62-4.92,1.87Z"/>
          <path class="cls-1" d="M514.83,148.91c2.45,2.25,3.68,5.61,3.68,10.07v12.31c0,3.84.31,6.93.94,9.3h-8.43c-.31-1.29-.47-2.81-.47-4.55h-.13c-2.5,3.57-6.18,5.35-11.04,5.35-3.52,0-6.33-.97-8.43-2.91-2.1-1.94-3.14-4.4-3.14-7.39s1.01-5.24,3.04-7.02c2.03-1.78,5.41-3.05,10.13-3.81,2.85-.44,5.69-.76,8.49-.94v-1.2c0-2.05-.49-3.57-1.47-4.55-.98-.98-2.34-1.47-4.08-1.47s-3.09.46-4.05,1.37c-.96.91-1.48,2.17-1.57,3.78h-9.1c.18-3.43,1.52-6.24,4.01-8.43,2.5-2.18,6.06-3.28,10.7-3.28s8.45,1.13,10.9,3.38ZM502.66,165.73c-1.96.36-3.37.89-4.21,1.61-.85.71-1.27,1.74-1.27,3.08s.43,2.33,1.3,3.11c.87.78,2.11,1.17,3.71,1.17,1.03,0,2.02-.17,2.98-.5.96-.33,1.75-.81,2.37-1.44.76-.76,1.27-1.62,1.54-2.57.27-.96.4-2.26.4-3.91v-1.27c-2.68.18-4.95.42-6.82.74Z"/>
          <path class="cls-1" d="M526.33,180.58v-47.62h9.36v47.62h-9.36Z"/>
          <path class="cls-1" d="M543.92,140.98v-8.03h9.36v8.03h-9.36ZM543.92,180.58v-33.98h9.36v33.98h-9.36Z"/>
          <path class="cls-1" d="M579.17,173.22v7.16c-1.43.45-3.08.67-4.95.67-3.92,0-6.78-.86-8.56-2.57-1.78-1.72-2.67-4.54-2.67-8.46v-16.45h-5.49v-6.96h5.49v-8.83h9.36v8.83h6.49v6.96h-6.49v14.78c0,1.87.33,3.21,1,4.01.67.8,1.81,1.2,3.41,1.2.94,0,1.74-.11,2.41-.33Z"/>
          <path class="cls-1" d="M599.14,188.31c-1.41,1.81-3.09,3.1-5.05,3.88-1.96.78-4.39,1.17-7.29,1.17-1.74,0-3.37-.18-4.88-.53v-7.49c.98.36,2.18.53,3.61.53,1.87,0,3.38-.5,4.51-1.5,1.14-1,1.71-2.33,1.71-3.98,0-.62-.1-1.34-.3-2.14-.2-.8-.64-2.14-1.31-4.01l-9.63-27.62h10.03l3.48,11.37c1.43,4.77,2.67,9.52,3.74,14.25h.13c1.34-5.48,2.65-10.23,3.95-14.25l3.68-11.37h9.63l-12.17,34.18c-1.16,3.21-2.44,5.72-3.85,7.52Z"/>
        </g>
      </g>
    </g>
  </g>
</svg>