<?xml version="1.0" encoding="UTF-8"?>
<svg id="Layer_2" xmlns="http://www.w3.org/2000/svg" viewBox="0 0 390.5 227.56">
  <defs>
    <style>
      .cls-1 {
        fill: #fff;
      }
    </style>
  </defs>
  <g id="Layer_1-2" data-name="Layer_1">
    <g>
      <path class="cls-1" d="M211.68,0H0v71.21h20.85c.86-11.07,3.29-20.63,7.29-28.69,4-8.05,8.95-13.44,14.85-16.14,5.9-2.7,15.13-4.06,27.67-4.06h10v154.13c0,11.19-1.87,19.09-5.63,23.71-3.75,4.61-11.9,6.92-24.44,6.92h-5.9v20.48h121.58v-20.48h-6.46c-12.42,0-20.57-2.24-24.45-6.74-3.87-4.49-5.81-12.45-5.81-23.89V22.32h10.55c15.62,0,26.99,3.35,34.13,10.06,7.13,6.7,12.67,19.65,16.6,38.83h20.84V0Z"/>
      <rect class="cls-1" x="325.49" y="32.51" width="32.51" height="65.02"/>
      <polygon class="cls-1" points="325.49 130.03 325.49 97.52 227.94 97.52 195.43 97.52 195.43 130.03 195.43 227.56 227.94 227.56 227.94 130.03 292.98 130.03 292.98 162.54 325.49 162.54 325.49 195.05 357.99 195.05 357.99 130.03 325.49 130.03"/>
      <rect class="cls-1" x="357.99" y="195.05" width="32.51" height="32.51"/>
      <rect class="cls-1" x="227.94" width="97.55" height="32.51"/>
    </g>
  </g>
</svg>