<svg viewBox="0 0 56.4 8.28" version="1.1" id="svg1" xmlns="http://www.w3.org/2000/svg" xmlns:svg="http://www.w3.org/2000/svg">
  <defs id="defs1"></defs>
  <g id="layer1" transform="translate(-11.294728,-22.278854)">
    <g id="text1" style="font-size:899.583px;font-family:Perisphere;-inkscape-font-specification:Perisphere;fill:#a80000;stroke-width:0.264583" aria-label="EVALYTICS  ">
      <path style="font-size:11.9944px;font-family:'Electromagnetic Lungs';-inkscape-font-specification:'Electromagnetic Lungs'" d="m 15.394377,22.347807 h 4.099648 v 1.171328 h -4.099648 q -1.212325,0 -2.067394,0.85507 -0.644231,0.64423 -0.808217,1.487586 h 5.803931 v 1.171328 h -5.803931 q 0.163986,0.843357 0.808217,1.481731 0.855069,0.860926 2.067394,0.860926 h 4.099648 v 1.171328 h -4.099648 q -1.698426,0 -2.899037,-1.200611 -1.200612,-1.200612 -1.200612,-2.899038 0,-1.698425 1.200612,-2.899037 1.200611,-1.200611 2.899037,-1.200611 z m 4.685312,2.92832 v -2.92832 h 1.171328 v 2.92832 q 0,1.212325 0.85507,2.073251 0.860926,0.85507 2.07325,1.745279 1.212325,-0.890209 2.067395,-1.745279 0.860926,-0.860926 0.860926,-2.073251 v -2.92832 h 1.171328 v 2.92832 q 0,1.698426 -1.200611,2.899037 -1.200612,1.200612 -2.899038,2.37194 -1.698425,-1.171328 -2.899037,-2.37194 -1.200611,-1.200611 -1.200611,-2.899037 z m 9.956289,2.342657 v 2.92832 H 28.86465 v -4.099649 q 0,-1.698425 1.200611,-2.899037 1.200611,-1.200611 2.899037,-1.200611 1.698426,0 2.899037,1.200611 1.200612,1.200612 1.200612,2.899037 v 4.099649 h -1.171328 v -2.92832 z m 5.856641,-1.171329 q 0,-1.212324 -0.860927,-2.067394 -0.855069,-0.860926 -2.067394,-0.860926 -1.212324,0 -2.073251,0.860926 -0.855069,0.85507 -0.855069,2.067394 z m 1.756991,0 v -4.099648 h 1.171328 v 4.099648 q 0,1.212325 0.855069,2.073251 0.860926,0.85507 2.073251,0.85507 v 1.171328 q -1.698426,0 -2.899037,-1.200611 -1.200611,-1.200612 -1.200611,-2.899038 z" id="path6"></path>
      <path style="font-size:13.2292px;fill:#666666" d="m 49.108274,22.345 -0.01323,0.238125 q -0.06615,1.613963 -0.555626,2.963341 -0.489481,1.349379 -1.296462,2.381256 -0.846669,1.071565 -1.98438,1.746255 -1.137711,0.674689 -2.460631,0.873127 -0.05292,0 -0.119063,0 -0.05292,0.01323 -0.119063,0.01323 l -0.06615,-0.449793 q 0.06615,-0.01323 0.119063,-0.01323 0.06615,-0.01323 0.119063,-0.02646 1.164169,-0.17198 2.169589,-0.740836 1.018648,-0.582084 1.799171,-1.494899 -1.428754,-0.886357 -2.354798,-2.209277 -0.912815,-1.32292 -1.018648,-3.029487 -0.01323,-0.06615 -0.01323,-0.119062 0,-0.06615 0,-0.119063 l 0.463022,-0.03969 q 0,0.02646 0,0.06615 0.01323,0.02646 0.01323,0.05292 0,0.02646 0,0.06615 0.01323,0.02646 0.01323,0.05292 0.105834,1.600733 0.965732,2.844278 0.873127,1.243545 2.222505,2.063755 0.846669,-1.137711 1.217087,-2.434173 0.370417,-1.309691 0.423334,-2.698757 l 0.476251,0.01323 z m 5.648879,0.436563 h -2.328339 v 7.765541 h -0.463022 v -7.765541 h -2.328339 v -0.476251 h 5.1197 v 0.476251 z m 1.177391,7.765541 H 55.458293 V 22.345 h 0.476251 v 8.202104 z m 6.217715,-0.132292 -0.224896,0.05292 q -0.251355,0.05292 -0.50271,0.06615 -0.238125,0.01323 -0.48948,0.01323 -1.719796,0 -2.989799,-1.098024 -1.270004,-1.098023 -1.270004,-3.003028 0,-2.024068 1.309691,-3.055946 1.309691,-1.045106 3.029487,-1.031877 0.145521,0 0.277813,0.01323 0.145522,0 0.291043,0.01323 0.145521,0.01323 0.277813,0.03969 0.145521,0.01323 0.291042,0.03969 l -0.0926,0.463022 q -0.264584,-0.05292 -0.529168,-0.07938 -0.264584,-0.02646 -0.529168,-0.02646 -1.534587,0 -2.698757,0.912815 -1.15094,0.899585 -1.15094,2.711986 0,1.8124 1.164169,2.711986 1.16417,0.899585 2.698757,0.899585 0.264584,0 0.515939,-0.02646 0.264584,-0.02646 0.529168,-0.07938 l 0.0926,0.463022 z m 5.543029,-2.103443 q 0,0.0926 -0.01323,0.198438 0,0.0926 -0.01323,0.185209 -0.145521,0.939273 -0.859898,1.336149 -0.714376,0.396876 -1.534587,0.48948 -0.198438,0.02646 -0.383647,0.02646 -0.185208,0 -0.370417,0 -0.463022,0 -0.926044,-0.03969 -0.449793,-0.03969 -0.912815,-0.105833 l 0.06615,-0.476252 q 0.224896,0.03969 0.436564,0.06615 0.224896,0.02646 0.449792,0.05292 0.224897,0.01323 0.436564,0.02646 0.224896,0.01323 0.449793,0.01323 0.198438,0 0.396876,-0.01323 0.211667,-0.01323 0.436563,-0.03969 0.635002,-0.07938 1.177399,-0.383647 0.555627,-0.317501 0.66146,-1.018648 0.01323,-0.06615 0.01323,-0.145521 0.01323,-0.07938 0.01323,-0.17198 0,-0.740835 -0.621773,-1.124482 -0.608543,-0.383647 -1.349378,-0.674689 -0.03969,-0.01323 -0.07937,-0.02646 -0.02646,-0.01323 -0.06615,-0.02646 -0.767294,-0.291042 -1.415525,-0.648231 -0.635001,-0.357188 -0.740835,-1.045107 h -0.01323 q 0,-0.105833 0,-0.198438 0,-0.0926 0,-0.171979 0.01323,-0.06615 0.01323,-0.132292 0,-0.07937 0.01323,-0.145521 0.145521,-0.978961 0.886357,-1.375837 0.754064,-0.396876 1.613962,-0.449793 0.0926,-0.01323 0.185209,-0.01323 0.105833,0 0.198438,0 0.396876,0 0.780523,0.03969 0.383646,0.03969 0.754064,0.105834 l -0.06615,0.463022 -0.224896,-0.02646 q -0.291043,-0.05292 -0.608544,-0.07938 -0.3175,-0.02646 -0.635001,-0.02646 -0.119063,0 -0.251355,0.01323 -0.119063,0 -0.251355,0.01323 -0.66146,0.05292 -1.230315,0.357189 -0.568856,0.304271 -0.687919,1.058336 -0.01323,0.06615 -0.01323,0.15875 0,0.07938 0,0.17198 0,0.555626 0.515939,0.859898 0.515939,0.304271 1.177399,0.568855 0.03969,0.01323 0.07937,0.03969 0.03969,0.01323 0.07937,0.02646 0.03969,0.01323 0.06615,0.02646 0.03969,0.01323 0.07938,0.02646 0.859898,0.33073 1.574275,0.793752 0.714377,0.463022 0.714377,1.441983 z" id="path7"></path>
    </g>
  </g>
</svg>